<svg width="129" height="46" viewBox="0 0 129 46" fill="none" xmlns="http://www.w3.org/2000/svg">
<path d="M62.987 16.2959H54.7573V45.0601H62.987V16.2959Z" fill="#F5F7FC"/>
<path d="M43.3022 0C35.1277 0.0275701 29.0157 2.32623 26.724 3.27567C21.5391 5.42269 16.7763 8.59325 12.6891 12.6805C7.16642 18.2031 4.45249 23.8895 3.26525 26.7637C0.110198 34.4006 -0.120702 41.2035 0.0361032 45.0599H9.13768C9.08082 42.8198 8.95847 29.7343 19.3593 19.3318C29.0674 9.62368 41.0483 9.1481 43.5383 9.10157C44.9702 9.16705 49.9431 9.21358 54.7576 9.26183C57.9143 9.29112 61.0074 9.32213 62.9872 9.36004V0.554848C61.0556 0.42389 57.9591 0.306717 54.7576 0.215391C50.0172 0.0792638 45.0529 -0.00516935 43.3039 0.00172317L43.3022 0Z" fill="#F5F7FC"/>
<path d="M27.1958 23.2038L41.048 45.06H51.7332L34.4915 17.8535C32.0499 19.1872 29.5617 20.9293 27.1958 23.2021V23.2038Z" fill="#F5F7FC"/>
<path d="M116.633 0.00146484H116.554C110.512 0.00146484 105.371 4.39028 104.421 10.3575L100.646 34.1177C100.594 34.4641 100.413 34.7691 100.165 34.9845C99.9117 35.1981 99.5878 35.3256 99.2328 35.3256C98.528 35.3256 97.9284 34.8139 97.8198 34.1177L94.0393 10.3523C93.5672 7.37302 92.0439 4.78315 89.8831 2.94113C87.7257 1.0991 84.9308 0.00146484 81.9119 0.00146484C75.1262 0.00146484 69.626 5.5017 69.626 12.2822V45.0596H78.376V12.2857C78.376 11.3104 78.7706 10.4264 79.4134 9.78712C80.0526 9.14784 80.9366 8.7498 81.9119 8.7498C83.6488 8.7498 85.1273 10.0146 85.403 11.7291L89.1749 35.4893C89.5695 37.962 90.8291 40.1056 92.6177 41.6357C94.4063 43.1624 96.7257 44.0723 99.2276 44.0723C104.233 44.0723 108.498 40.433 109.282 35.4876L113.063 11.7274C113.338 10.0129 114.817 8.74808 116.554 8.74808H116.633C118.584 8.74808 120.164 10.3316 120.164 12.2839V45.0579H128.914V12.2822C128.914 5.5017 123.419 0.00146484 116.633 0.00146484Z" fill="#F5F7FC"/>
</svg>
